<svg xmlns="http://www.w3.org/2000/svg" xmlns:xlink="http://www.w3.org/1999/xlink" width="103.458" height="46.264" viewBox="0 0 103.458 46.264">
  <defs>
    <clipPath id="clip-path">
      <rect id="Rectangle_4795" data-name="Rectangle 4795" width="103.458" height="46.264" fill="none"/>
    </clipPath>
  </defs>
  <g id="Group_4577" data-name="Group 4577" transform="translate(0 0)">
    <g id="Group_4577-2" data-name="Group 4577" transform="translate(0 0)" clip-path="url(#clip-path)">
      <path id="Path_9487" data-name="Path 9487" d="M44.229,0V46.264H44.2a29.76,29.76,0,0,0-3.3-.182H32.094c-1.093,0-2.266.058-3.522.182l.391-8.029h-.2a18.423,18.423,0,0,1-6.108,5.93,15.872,15.872,0,0,1-7.988,2.1c-4.67,0-8.26-1.4-10.8-4.008Q.095,38.313.1,29.262c0-3.179.057-5.992.19-8.417s.185-4.868.185-7.289q0-3-.14-6.5T0,0C.814.127,1.831.233,3.081.33S5.63.468,7,.468,9.693.416,10.931.33,13.2.127,14.013,0c-.434,3.36-.718,7.266-.841,11.681s-.183,9.47-.183,15.148c0,3.921.659,6.809,2,8.65a6.624,6.624,0,0,0,5.663,2.756,6.555,6.555,0,0,0,6.168-3.65q1.944-3.644,1.947-10.094V20.746c0-3.794-.04-7.362-.137-10.7S28.325,3.36,28.016,0a41.823,41.823,0,0,0,7.006.468c1.445,0,4.934-.052,6.123-.138s2.2-.2,3.085-.33" transform="translate(0 0)" fill="#035" fill-rule="evenodd"/>
      <path id="Path_9488" data-name="Path 9488" d="M98.866,16.5c0-.336-.011-.6-.034-.863H99.4l.023.527h.03a1.2,1.2,0,0,1,1.112-.589,1.029,1.029,0,0,1,.983.631h.016a1.458,1.458,0,0,1,.4-.413,1.321,1.321,0,0,1,.783-.218c.464,0,1.153.271,1.153,1.387v1.86h-.628v-1.8c0-.612-.259-.973-.759-.973a.816.816,0,0,0-.753.514.847.847,0,0,0-.057.29v1.971h-.62V16.914c0-.506-.251-.867-.743-.867a.869.869,0,0,0-.8.582.83.83,0,0,0-.049.28v1.912h-.626Z" transform="translate(-52.329 -8.246)" fill="#035" fill-rule="evenodd"/>
      <path id="Path_9489" data-name="Path 9489" d="M114.484,14.29h.646v3.186h-.646Zm.725-.9a.374.374,0,0,1-.42.353.354.354,0,0,1-.383-.353.375.375,0,0,1,.413-.361.368.368,0,0,1,.391.361" transform="translate(-60.576 -6.901)" fill="#035" fill-rule="evenodd"/>
      <path id="Path_9490" data-name="Path 9490" d="M123.21,18.719a2.778,2.778,0,0,1-1.015.184,1.6,1.6,0,0,1-1.748-1.633,1.705,1.705,0,0,1,1.889-1.7,2.1,2.1,0,0,1,.885.17l-.144.438a1.61,1.61,0,0,0-.742-.147,1.2,1.2,0,1,0-.016,2.4,1.822,1.822,0,0,0,.77-.153Z" transform="translate(-63.775 -8.246)" fill="#035" fill-rule="evenodd"/>
      <path id="Path_9491" data-name="Path 9491" d="M130.667,16.633c0-.373,0-.7-.021-1h.555l.026.629h.028a1.036,1.036,0,0,1,.981-.691.8.8,0,0,1,.168.016v.536a1,1,0,0,0-.221-.014.869.869,0,0,0-.847.738,1.307,1.307,0,0,0-.019.28v1.691h-.649Z" transform="translate(-69.174 -8.246)" fill="#035" fill-rule="evenodd"/>
      <path id="Path_9492" data-name="Path 9492" d="M138.491,17.234a1.111,1.111,0,0,0,1.069,1.228,1.13,1.13,0,0,0,1.067-1.237,1.078,1.078,0,1,0-2.136.009m2.8-.029a1.657,1.657,0,0,1-1.752,1.7,1.6,1.6,0,0,1-1.7-1.643,1.641,1.641,0,0,1,1.746-1.686,1.581,1.581,0,0,1,1.7,1.631" transform="translate(-72.983 -8.246)" fill="#035" fill-rule="evenodd"/>
      <path id="Path_9493" data-name="Path 9493" d="M149.234,17.124V14.381h-.483v-.442h.483V13.79a1.455,1.455,0,0,1,.415-1.115,1.3,1.3,0,0,1,.855-.306,1.728,1.728,0,0,1,.546.1l-.086.454a.963.963,0,0,0-.41-.083c-.543,0-.683.437-.683.926v.175h.858v.442h-.858v2.743Z" transform="translate(-78.761 -6.549)" fill="#035" fill-rule="evenodd"/>
      <path id="Path_9494" data-name="Path 9494" d="M156.869,14.29h.638v3.186h-.638Zm.708-.9a.361.361,0,0,1-.4.353.352.352,0,0,1-.376-.353.391.391,0,0,1,.78,0" transform="translate(-83.021 -6.901)" fill="#035" fill-rule="evenodd"/>
      <path id="Path_9495" data-name="Path 9495" d="M163.323,16.5c0-.336-.017-.6-.033-.863h.563l.032.527h.028a1.294,1.294,0,0,1,1.146-.589,1.2,1.2,0,0,1,1.243,1.353v1.894h-.621V16.985c0-.514-.22-.938-.818-.938a.913.913,0,0,0-.86.591.631.631,0,0,0-.044.271v1.912h-.636Z" transform="translate(-86.459 -8.246)" fill="#035" fill-rule="evenodd"/>
      <path id="Path_9496" data-name="Path 9496" d="M176.256,17.2c-.7-.016-1.486.1-1.486.71a.54.54,0,0,0,.595.563.864.864,0,0,0,.855-.534.371.371,0,0,0,.036-.186Zm.618.859a3.6,3.6,0,0,0,.064.763h-.6l-.046-.4h-.018a1.333,1.333,0,0,1-1.068.479.961.961,0,0,1-1.079-.919c0-.77.761-1.192,2.11-1.185v-.071c0-.256-.071-.741-.8-.733a1.772,1.772,0,0,0-.917.243l-.151-.392a2.423,2.423,0,0,1,1.157-.271,1.176,1.176,0,0,1,1.341,1.293Z" transform="translate(-92.198 -8.246)" fill="#035" fill-rule="evenodd"/>
      <path id="Path_9497" data-name="Path 9497" d="M184.909,16.5c0-.336,0-.6-.021-.863h.561l.044.527h.008a1.344,1.344,0,0,1,1.164-.589,1.2,1.2,0,0,1,1.238,1.353v1.894h-.63V16.985c0-.514-.218-.938-.816-.938a.916.916,0,0,0-.859.591.833.833,0,0,0-.049.271v1.912h-.64Z" transform="translate(-97.894 -8.246)" fill="#035" fill-rule="evenodd"/>
      <path id="Path_9498" data-name="Path 9498" d="M198.527,18.719a2.755,2.755,0,0,1-1,.184,1.6,1.6,0,0,1-1.76-1.633,1.705,1.705,0,0,1,1.886-1.7,2.16,2.16,0,0,1,.885.17l-.137.438a1.693,1.693,0,0,0-.748-.147,1.2,1.2,0,1,0-.021,2.4,1.939,1.939,0,0,0,.785-.153Z" transform="translate(-103.657 -8.246)" fill="#035" fill-rule="evenodd"/>
      <path id="Path_9499" data-name="Path 9499" d="M207.869,16.924a.849.849,0,0,0-.883-.937,1,1,0,0,0-.988.937ZM206,17.339a1.072,1.072,0,0,0,1.2,1.1,2.441,2.441,0,0,0,.979-.161l.114.41a2.958,2.958,0,0,1-1.166.213,1.573,1.573,0,0,1-1.738-1.619,1.6,1.6,0,0,1,1.642-1.709,1.392,1.392,0,0,1,1.46,1.494,1.419,1.419,0,0,1-.023.27Z" transform="translate(-108.749 -8.247)" fill="#035" fill-rule="evenodd"/>
      <path id="Path_9500" data-name="Path 9500" d="M113.69,57.511a25.178,25.178,0,0,1-2.508.756,5.81,5.81,0,0,0-2.236.928,1.478,1.478,0,0,0,0,2.191,2,2,0,0,0,1.4.434,3.62,3.62,0,0,0,1.807-.468,2.873,2.873,0,0,0,1.191-1.153,3.925,3.925,0,0,0,.344-1.758Zm-5.044-3.054-5.559-.592a6.2,6.2,0,0,1,.9-2.295,5.063,5.063,0,0,1,1.714-1.445,7.126,7.126,0,0,1,2.2-.691,18,18,0,0,1,3.031-.242,24.093,24.093,0,0,1,4.206.3,5.512,5.512,0,0,1,2.642,1.216,4.533,4.533,0,0,1,1.174,1.823,6.7,6.7,0,0,1,.431,2.254v6.7a8.573,8.573,0,0,0,.13,1.68,8.593,8.593,0,0,0,.589,1.558h-5.462a6.843,6.843,0,0,1-.426-.9,9.1,9.1,0,0,1-.194-.963,7.221,7.221,0,0,1-2.274,1.571,9.482,9.482,0,0,1-3.583.628,6.044,6.044,0,0,1-4.14-1.256,4.277,4.277,0,0,1-.374-5.939,6.785,6.785,0,0,1,3.748-1.654c2.173-.448,3.589-.75,4.233-.928a19.733,19.733,0,0,0,2.062-.692,2.027,2.027,0,0,0-.448-1.508,2.221,2.221,0,0,0-1.558-.426,3.966,3.966,0,0,0-2.137.461,2.472,2.472,0,0,0-.9,1.348" transform="translate(-54.337 -26.046)" fill="#035" fill-rule="evenodd"/>
      <path id="Path_9501" data-name="Path 9501" d="M143.169,49.537h5.409v2.472a8.058,8.058,0,0,1,2.452-2.161,6.47,6.47,0,0,1,3.028-.655,4.942,4.942,0,0,1,3.769,1.435,6.206,6.206,0,0,1,1.38,4.437v9.652h-5.843V56.367a3.116,3.116,0,0,0-.53-2.027,1.9,1.9,0,0,0-1.491-.585,2.108,2.108,0,0,0-1.708.8,4.6,4.6,0,0,0-.66,2.878v7.287h-5.805Z" transform="translate(-75.805 -26.046)" fill="#035" fill-rule="evenodd"/>
      <path id="Path_9502" data-name="Path 9502" d="M182.14,37.645h5.942V48.468l4.339-5.046H199.6l-5.451,5.321L199.9,58.6h-6.551l-3.064-6.093-2.2,2.148V58.6H182.14Z" transform="translate(-96.439 -19.932)" fill="#035" fill-rule="evenodd"/>
      <path id="Path_9503" data-name="Path 9503" d="M72.446,31.827a8.665,8.665,0,0,0-4.058,1.008V19.1H63.3V49.253h9.149a8.713,8.713,0,0,0,0-17.426" transform="translate(-33.514 -10.116)" fill="#f1f1f2" fill-rule="evenodd"/>
      <path id="Path_9504" data-name="Path 9504" d="M76.59,56.781A4.078,4.078,0,1,1,72.5,60.865a4.072,4.072,0,0,1,4.087-4.084" transform="translate(-38.389 -30.064)" fill="#95ab27" fill-rule="evenodd"/>
    </g>
  </g>
</svg>
